<svg width="88" height="80" viewBox="0 0 88 80" fill="none" xmlns="http://www.w3.org/2000/svg">
<path d="M63.7107 44.615C63.0616 44.615 62.5357 44.0941 62.5357 43.4512V42.031H57.3277C56.6786 42.031 56.1527 41.5101 56.1527 40.8672C56.1527 40.2243 56.6779 39.7034 57.3277 39.7034H63.7108C64.3598 39.7034 64.8857 40.2243 64.8857 40.8672V43.4511C64.885 44.094 64.3598 44.615 63.7107 44.615Z" fill="url(#paint0_linear_469_16913)"/>
<path d="M83.0153 64.9708C82.8073 65.3383 82.4149 65.5662 81.9893 65.5662H77.9083C76.6618 68.1816 73.9814 70 70.8725 70C67.7643 70 65.0833 68.1816 63.8367 65.5662H25.7685C24.522 68.1816 21.8416 70 18.7327 70C15.6245 70 12.9435 68.1816 11.6969 65.5662H5.63687C5.10213 65.5662 4.63524 65.2089 4.49953 64.6968L1.53807 53.4856C1.45324 53.1627 1.51151 52.8193 1.6996 52.5417L3.05083 50.5503C3.26915 50.2288 3.63501 50.036 4.02593 50.036H4.98995L4.99142 21.711C4.99142 21.0681 5.51657 20.5472 6.1664 20.5472L42.6503 20.548V11.1645C42.6503 10.5216 43.1755 10.0007 43.8253 10.0007L70.872 10C71.3175 10 71.7231 10.2491 71.923 10.6429L87.3761 41.229C87.4572 41.3904 87.5 41.5687 87.5 41.7499V56.728C87.5 56.9267 87.4484 57.1232 87.351 57.2963L83.0153 64.9708ZM70.8724 67.6731C73.8684 67.6731 76.3061 65.2579 76.3061 62.2903C76.3061 59.3228 73.8677 56.9083 70.8724 56.9083C67.8764 56.9083 65.4387 59.3228 65.4387 62.2903C65.4387 65.2579 67.8772 67.6731 70.8724 67.6731ZM18.7334 67.6731C21.7294 67.6731 24.1671 65.2579 24.1671 62.2903C24.1671 59.3228 21.7287 56.9083 18.7334 56.9083C15.7374 56.9083 13.2997 59.3228 13.2997 62.2903C13.2997 65.2579 15.7381 67.6731 18.7334 67.6731ZM31.7288 22.875H18.9568V34.556L24.8153 30.3816C25.2306 30.0843 25.7941 30.0901 26.2071 30.3955L31.7294 34.499L31.7288 22.875ZM42.6502 22.875H34.0781V36.8267C34.0781 37.268 33.8266 37.6705 33.429 37.8678C33.2623 37.9503 33.0824 37.9905 32.9039 37.9905C32.6538 37.9905 32.406 37.9116 32.198 37.7574L25.486 32.7699L18.4679 37.7713C18.108 38.027 17.6374 38.0613 17.2457 37.8626C16.8533 37.6632 16.607 37.2628 16.607 36.8267L16.6063 22.875H7.34158V50.0366H42.651L42.6502 22.875ZM73.1711 18.317H64.9648L71.6377 33.3587H80.7704L73.1711 18.317ZM85.1495 47.2086H81.6837V51.421L85.1495 53.6178V47.2086ZM85.1495 56.3817L79.875 53.0386C79.5379 52.8253 79.3336 52.4549 79.3336 52.0582V46.0457C79.3336 45.4028 79.8588 44.8819 80.5086 44.8819H85.1494V42.026L81.9469 35.6875H70.8714C70.4052 35.6875 69.9834 35.4151 69.796 34.992L62.0891 17.6228C61.9283 17.2634 61.963 16.8477 62.1806 16.5182C62.3974 16.1895 62.7669 15.9908 63.1638 15.9908L71.9955 15.99L70.1456 12.3285H44.9985V51.1997C44.9985 51.8426 44.4733 52.3635 43.8235 52.3635H4.65266L3.94606 53.4053L6.54385 63.2387H11.0136C10.9745 62.9268 10.9487 62.6119 10.9487 62.2897C10.9487 58.0386 14.4404 54.58 18.7325 54.58C23.0243 54.58 26.5162 58.0385 26.5162 62.2897C26.5162 62.6119 26.4897 62.9268 26.4513 63.2387H63.1524C63.1133 62.9268 63.0875 62.6119 63.0875 62.2897C63.0875 58.0386 66.5791 54.58 70.8712 54.58C75.1633 54.58 78.655 58.0385 78.655 62.2897C78.655 62.6119 78.6284 62.9268 78.5901 63.2387H81.3L85.1495 56.4247L85.1495 56.3817Z" fill="url(#paint1_linear_469_16913)"/>
<defs>
<linearGradient id="paint0_linear_469_16913" x1="64.8857" y1="39.7034" x2="56.4441" y2="44.6361" gradientUnits="userSpaceOnUse">
<stop stop-color="#74B9FF"/>
<stop offset="1" stop-color="#756FF6"/>
</linearGradient>
<linearGradient id="paint1_linear_469_16913" x1="87.5" y1="10" x2="-3.7646" y2="52.9904" gradientUnits="userSpaceOnUse">
<stop stop-color="#74B9FF"/>
<stop offset="1" stop-color="#756FF6"/>
</linearGradient>
</defs>
</svg>
