<svg width="69" height="80" viewBox="0 0 69 80" fill="none" xmlns="http://www.w3.org/2000/svg">
<path d="M52.538 72.9714C52.4768 72.7524 52.5026 72.5185 52.61 72.3179C52.67 72.178 52.7511 72.0369 52.8225 71.9072L52.8525 71.8161V71.8155C52.8807 71.7506 52.9185 71.6899 52.9641 71.6351C53.116 71.3429 53.2685 71.0518 53.4299 70.7608V70.7602C51.4149 69.931 49.3494 69.2299 47.245 68.6597C46.5763 70.3376 45.9274 72.4596 47.7516 73.6149C49.1033 74.3893 50.5206 75.0447 51.9869 75.575C52.224 74.7506 52.3561 73.8256 52.538 72.9714ZM38.7628 49.7721C36.5832 47.2388 34.9307 44.3949 35.5695 41.9116C33.046 41.761 31.2819 39.2986 30.9878 36.6141C30.5845 32.9476 33.408 29.7477 36.0864 27.5774C42.3205 22.5317 50.3183 20.0591 57.9912 23.6775C65.8275 27.366 70.3612 35.4277 68.6349 44.0106C66.5063 54.5776 59.502 63.2314 54.6467 72.6635C54.2433 73.92 54.0693 75.4372 53.6737 76.7746C53.6755 77.0157 53.5927 77.2502 53.4408 77.4377C53.2487 78.0507 52.8958 78.6013 52.4186 79.0341C51.9408 79.4668 51.3561 79.7657 50.7235 79.9002C47.1358 80.665 43.517 76.8045 40.0703 76.1514C37.901 75.7294 32.0521 75.4782 30.9273 73.0348C29.9951 70.995 31.8391 68.3409 32.9952 66.3684C33.6446 64.9315 34.2095 63.4583 34.6873 61.9566C34.0186 61.7054 33.3494 61.4441 32.6603 61.2233C31.4544 60.8322 31.9706 58.9418 33.1873 59.3341C33.8866 59.5657 34.5865 59.827 35.2756 60.0883C35.3573 59.8169 35.4377 59.5448 35.5091 59.274C34.8098 59.0532 34.1099 58.852 33.401 58.6609V58.6603C32.8962 58.499 32.6093 57.9717 32.7503 57.4651C32.892 56.958 33.4112 56.6521 33.928 56.7705C34.6471 56.9616 35.3572 57.1705 36.0667 57.3937C36.1274 57.183 36.1886 56.9616 36.2492 56.7508C36.0163 56.6699 35.7726 56.58 35.5397 56.5098C34.3236 56.1372 34.8398 54.2379 36.0565 54.62C36.32 54.701 36.5733 54.7908 36.8272 54.8813H36.8266C37.3561 53.1374 38.0025 51.4303 38.7631 49.772L38.7628 49.7721ZM37.082 60.7385C37.3251 60.829 37.5682 60.929 37.8215 61.0099C39.0316 61.4027 38.5112 63.292 37.2945 62.8991C37.031 62.8092 36.7675 62.7092 36.504 62.6086C36.3821 63.0008 36.2507 63.3824 36.1288 63.7645C42.2309 65.5644 48.5161 66.5788 54.3964 69.062C61.0459 57.6838 73.6151 41.4636 63.3269 30.0414C58.6029 24.8047 50.8584 22.2518 44.0559 24.9559V24.9553C41.0654 26.1535 38.3542 27.9457 36.0887 30.2217C34.8828 31.4586 33.4031 32.9551 33.0377 34.715C32.6727 36.4942 33.6355 40.6761 36.5245 39.872C36.6073 39.8506 36.6932 39.8435 36.7784 39.8518C37.6553 38.9988 38.6961 38.3286 39.8391 37.8816C43.5696 36.2929 46.2558 38.1423 48.101 41.0274C50.736 40.8661 53.271 40.8941 55.6827 42.1333C56.8184 42.7059 55.8172 44.3952 54.6791 43.8219C52.9463 43.0434 51.035 42.7363 49.1431 42.9315C49.2775 43.2124 49.4066 43.4934 49.5284 43.7856C52.6306 44.7404 55.4278 46.1981 57.3329 48.8915C58.0628 49.9271 56.3503 50.9021 55.6306 49.876C54.301 48.1349 52.4691 46.8374 50.3771 46.1546C50.7823 47.4558 51.101 48.7813 51.3297 50.1242C51.5314 51.361 49.6268 51.8943 49.4246 50.6474C48.7457 46.6063 46.2649 36.7764 40.1699 39.8518C33.1668 43.3904 41.2059 49.8034 44.6724 52.7979C45.6352 53.6324 44.2264 55.0098 43.2738 54.1853C42.3326 53.3711 41.2569 52.4068 40.2222 51.3408C39.6153 52.7229 39.0811 54.136 38.6213 55.5733C39.3716 55.8942 40.1111 56.2358 40.8399 56.5673C41.996 57.1007 40.9924 58.7893 39.8471 58.2666C39.2493 57.9851 38.6412 57.7143 38.0428 57.4518C37.9924 57.6339 37.9413 57.8042 37.8909 57.9851C38.7931 58.2863 39.6952 58.6083 40.5873 58.9184C41.7829 59.3416 41.2661 61.2409 40.0596 60.8088C39.1581 60.4969 38.2446 60.1749 37.3327 59.8636C37.2523 60.1564 37.161 60.4475 37.0806 60.7386L37.082 60.7385ZM34.4367 72.8905C36.6871 73.5572 38.998 73.8958 41.2892 74.3887C44.0456 74.9821 46.0732 77.1034 48.7695 77.7362C49.5576 78.0094 50.4328 77.8487 51.0709 77.3142C49.1646 76.5904 46.8842 75.8869 45.6477 74.3888C44.096 72.4888 44.5222 70.2668 45.344 68.1569C42.0497 67.3027 38.7147 66.5784 35.45 65.6135C35.3894 65.7641 35.3155 65.9147 35.2579 66.0754L35.2573 66.076C35.2579 66.2367 35.2195 66.3957 35.1457 66.5385C35.0166 66.8004 34.8744 67.0558 34.7195 67.3034C34.6691 67.4135 34.6391 67.5242 34.5886 67.6242C34.5286 67.7546 34.4386 67.8688 34.3251 67.9575C33.1564 69.8641 31.8388 72.1307 34.4344 72.8913L34.4367 72.8905Z" fill="url(#paint0_linear_469_16934)"/>
<path d="M3.87223 46.5067C3.88184 46.7227 3.80981 46.934 3.67055 47.0995C3.56911 47.6519 3.44726 48.206 3.3254 48.7662C3.27498 49.0382 3.20355 49.3287 3.13332 49.6328C4.66156 49.8293 6.20968 49.8192 7.73541 49.6031C9.87472 49.1507 10.1784 47.2306 10.2799 45.3312C8.13048 44.9729 5.95997 44.7503 3.78225 44.6646C3.80266 44.8646 3.81226 45.077 3.82246 45.2687V45.2681C3.87709 45.402 3.89449 45.5479 3.87349 45.6901C3.87168 45.7609 3.86448 45.8318 3.85308 45.9014C3.86148 46.1044 3.87223 46.3055 3.87223 46.5067ZM22.5731 44.2948C22.3601 44.2757 22.1374 44.2656 21.9141 44.2347C20.6667 44.0936 20.6577 42.1341 21.9141 42.2746C22.228 42.3145 22.5323 42.3348 22.8366 42.3645C22.8871 42.0538 22.9381 41.7526 22.9789 41.4497C22.0863 41.3598 21.1847 41.2687 20.2826 41.1884C19.0256 41.0777 19.0154 39.1218 20.2826 39.2283C21.2754 39.3182 22.279 39.4194 23.2724 39.5194C23.3036 39.3385 23.3336 39.1682 23.354 38.9861C22.2286 38.9563 21.276 38.9563 21.276 38.9563C20.2628 38.9563 20.2628 36.9957 21.276 36.9957C22.1782 36.9957 22.9285 36.9957 23.6289 37.0148V37.016C23.8204 35.5565 23.9351 34.0874 23.9735 32.6161C22.5041 33.1184 21.0737 33.5208 19.9291 33.8529C19.4128 33.9714 18.893 33.6655 18.752 33.1583C18.6103 32.6512 18.8972 32.1238 19.402 31.9625C22.1896 31.1584 31.7084 29.0072 30.3289 24.605C27.4705 15.4278 18.935 23.6806 16.0159 27.9223C15.3058 28.9573 13.5957 27.9824 14.313 26.9372C15.0729 25.8318 15.9265 24.6759 16.8569 23.57H16.8575C14.6768 23.361 12.4828 23.7979 10.5531 24.8265C10.0849 25.0788 9.49908 24.9181 9.22837 24.4628C8.95766 24.0074 9.09991 23.4218 9.54949 23.1378C12.3574 21.5379 15.4284 21.3689 18.5808 21.7706C18.8251 21.5492 19.0676 21.3182 19.3203 21.104C17.6829 20.1706 15.8269 19.679 13.9385 19.679C12.6612 19.7391 12.6714 17.779 13.9385 17.7184C16.5736 17.6082 18.8648 18.6338 21.1151 19.8295C21.6823 19.4831 22.2796 19.1873 22.899 18.945C24.7291 18.3183 26.7375 18.4581 28.4608 19.3331C30.1848 20.2075 31.474 21.7408 32.0323 23.5788C32.1103 23.6074 32.1854 23.6449 32.2556 23.6895C35.063 25.9406 37.8001 21.1765 37.5979 19.0058H37.5973C37.4058 17.085 36.8632 15.2154 35.9958 13.4874C34.7185 10.8833 33.198 8.221 30.9538 6.3102C25.7562 1.8669 17.8498 0.439584 11.6367 3.75728C-1.95599 11.0142 2.43296 29.3992 3.62877 42.6971C10.0154 42.8882 16.1482 44.5869 22.4419 45.5017C22.4821 45.0988 22.5229 44.6976 22.5733 44.2946L22.5731 44.2948ZM1.61184 12.9144C4.2169 5.28486 11.1396 -0.233459 19.5029 0.00760097C27.7642 0.239137 34.373 5.08418 37.709 12.5019C38.9456 15.2565 40.6995 19.5081 38.9252 22.4528C37.3945 24.976 34.8303 26.805 32.2654 25.8807C31.9106 28.6853 29.0828 30.5544 25.9699 31.8514C25.9645 33.6203 25.8354 35.387 25.5851 37.1387C25.7868 37.1595 25.9885 37.1786 26.1902 37.2095C27.4375 37.3703 27.4573 39.3309 26.2004 39.1696C25.9369 39.1297 25.6434 39.0987 25.3192 39.0797C25.288 39.3005 25.2478 39.5207 25.2178 39.7463C25.9783 39.8463 26.7376 39.9576 27.4982 40.0874C28.7551 40.2987 28.2185 42.1885 26.9711 41.9772C26.2923 41.8563 25.6122 41.7563 24.9243 41.676C24.8835 41.9569 24.8325 42.2284 24.7899 42.5105C25.4694 42.5605 26.1488 42.6105 26.8278 42.6903C28.0751 42.8307 28.0949 44.7908 26.8278 44.6509C26.0673 44.5598 25.2971 44.5098 24.5366 44.4598H24.5354C24.3223 46.0288 24.2101 47.6097 24.1993 49.1929C24.422 51.3929 25.0505 55.0226 23.1555 56.1261C20.6824 57.5635 16.192 55.7136 13.7177 55.1207C9.94696 54.2154 6.03452 55.7332 2.42342 54.1255C1.02363 53.5023 0.7703 52.1352 0.912593 50.6168H0.913193C0.902389 50.509 0.912593 50.4001 0.943206 50.2965C1.14489 48.7078 1.71392 47.0299 1.86579 45.9038C1.45042 35.2088 -1.95537 23.3384 1.61249 12.9143L1.61184 12.9144ZM22.2289 49.1708C22.1887 48.8488 22.1683 48.5768 22.1581 48.356C22.1575 48.2066 22.1917 48.0584 22.2589 47.9244C22.2698 47.784 22.2698 47.5524 22.2698 47.5524C18.8939 46.5471 15.5697 46.306 12.224 45.7126C12.0721 47.9036 11.5451 50.2059 9.33324 51.1613C7.42811 51.9857 5.10686 51.7041 3.00843 51.5833C3.20051 52.3672 3.84939 52.9404 5.5319 52.9702V52.9696C6.19458 52.9999 6.85845 52.9904 7.51939 52.9398C9.62689 52.7583 11.4523 52.5577 13.5201 53.0499C15.9325 53.6333 18.639 54.6499 21.1426 54.5576C22.6733 54.5076 22.5106 51.9238 22.3083 49.9745V49.975C22.2453 49.8429 22.2141 49.6989 22.2177 49.553C22.2081 49.4221 22.2291 49.3013 22.2291 49.1709L22.2289 49.1708Z" fill="url(#paint1_linear_469_16934)"/>
<path d="M7.55895 15.3792C10.9695 7.89678 17.9511 5.72953 25.5761 8.16511C26.7934 8.5532 27.3108 6.6604 26.1019 6.27473C17.6983 3.59031 9.60451 6.15866 5.85357 14.3894C5.33316 15.5322 7.03606 16.5292 7.56063 15.3792L7.55895 15.3792Z" fill="url(#paint2_linear_469_16934)"/>
<path d="M27.8731 9.32227C28.8311 9.74964 29.6673 10.4062 30.3066 11.2323C30.5887 11.69 31.1853 11.8454 31.6583 11.5835C32.1295 11.3103 32.288 10.7103 32.0131 10.2431C31.2003 9.12702 30.1206 8.22879 28.8708 7.62949C28.3984 7.36819 27.8018 7.52295 27.519 7.98127C27.2453 8.44851 27.4031 9.04787 27.8731 9.32227Z" fill="url(#paint3_linear_469_16934)"/>
<path d="M38.348 32.9695C38.887 32.2904 39.5941 31.7624 40.4008 31.4363C40.8714 31.1625 41.0299 30.5625 40.7555 30.0953C40.4728 29.6376 39.8762 29.4822 39.4032 29.7441C38.3011 30.2369 37.3491 31.0078 36.6414 31.9804C36.367 32.4476 36.5255 33.047 36.9961 33.3208C37.4685 33.5827 38.0653 33.4273 38.348 32.9695Z" fill="url(#paint4_linear_469_16934)"/>
<path d="M43.3335 29.7757C48.9927 27.9425 54.7336 27.8544 59.6035 31.6596C60.5933 32.4322 62.002 31.0554 61.0009 30.2739C55.5609 26.024 49.2239 25.8074 42.8071 27.8852C41.6012 28.2757 42.1174 30.1691 43.3329 29.7756L43.3335 29.7757Z" fill="url(#paint5_linear_469_16934)"/>
<defs>
<linearGradient id="paint0_linear_469_16934" x1="30.6729" y1="21.9587" x2="78.1361" y2="32.259" gradientUnits="userSpaceOnUse">
<stop stop-color="#74B9FF"/>
<stop offset="1" stop-color="#756FF6"/>
</linearGradient>
<linearGradient id="paint1_linear_469_16934" x1="0" y1="0" x2="48.8631" y2="11.2455" gradientUnits="userSpaceOnUse">
<stop stop-color="#74B9FF"/>
<stop offset="1" stop-color="#756FF6"/>
</linearGradient>
<linearGradient id="paint2_linear_469_16934" x1="5.75586" y1="5.25256" x2="24.9316" y2="17.7143" gradientUnits="userSpaceOnUse">
<stop stop-color="#74B9FF"/>
<stop offset="1" stop-color="#756FF6"/>
</linearGradient>
<linearGradient id="paint3_linear_469_16934" x1="27.3848" y1="7.50269" x2="32.8103" y2="9.52108" gradientUnits="userSpaceOnUse">
<stop stop-color="#74B9FF"/>
<stop offset="1" stop-color="#756FF6"/>
</linearGradient>
<linearGradient id="paint4_linear_469_16934" x1="36.5068" y1="29.617" x2="41.4864" y2="31.4894" gradientUnits="userSpaceOnUse">
<stop stop-color="#74B9FF"/>
<stop offset="1" stop-color="#756FF6"/>
</linearGradient>
<linearGradient id="paint5_linear_469_16934" x1="42.1211" y1="26.6041" x2="52.3796" y2="38.8709" gradientUnits="userSpaceOnUse">
<stop stop-color="#74B9FF"/>
<stop offset="1" stop-color="#756FF6"/>
</linearGradient>
</defs>
</svg>
