<svg width="72" height="80" viewBox="0 0 72 80" fill="none" xmlns="http://www.w3.org/2000/svg">
<path d="M65.4928 9.46913H23.836V0H17.2322C13.9198 0 11.2245 2.67728 11.2245 5.96789V20.1227H0.5V80H65.4923C68.8047 80 71.5 77.3227 71.5 74.0321V15.4389C71.5 12.1472 68.8049 9.46992 65.4923 9.46992L65.4928 9.46913ZM69.6135 48.5323H56.6058V40.9374H60.7766V26.7331H69.6137L69.6135 48.5323ZM40.767 19.9675C41.3737 19.9675 41.8674 20.4579 41.8674 21.0606C41.8674 21.6633 41.3737 22.1537 40.767 22.1537C40.1603 22.1537 39.6666 21.6633 39.6666 21.0606C39.6659 20.4579 40.159 19.9675 40.767 19.9675ZM13.1124 5.96836C13.1124 3.7114 14.9612 1.87491 17.2332 1.87491H21.9501V58.0014H17.2332C15.6397 58.0014 14.1891 58.6208 13.1124 59.6297V5.96836ZM17.2332 59.8759H23.8369V11.3445H39.8237V18.2456C38.6372 18.6393 37.7789 19.7516 37.7789 21.0598C37.7789 22.6973 39.1196 24.0285 40.7674 24.0285C42.4158 24.0285 43.756 22.6967 43.756 21.0598C43.756 19.7503 42.8977 18.6386 41.7112 18.2456V11.3445H65.494C67.7491 11.3445 69.5849 13.1543 69.6118 15.3878H57.9129C57.5165 14.2091 56.3968 13.3566 55.0798 13.3566C53.4315 13.3566 52.0913 14.6884 52.0913 16.3253C52.0913 17.9627 53.432 19.294 55.0798 19.294C56.3981 19.294 57.5173 18.4414 57.9129 17.2627H69.6142V24.8576L58.8897 24.8582V39.0625H54.7189V48.5317H51.2441V33.4661C52.4332 33.0742 53.2939 31.96 53.2939 30.6493C53.2939 29.0118 51.9532 27.6806 50.3054 27.6806C48.657 27.6806 47.3168 29.0124 47.3168 30.6493C47.3168 31.9569 48.1732 33.0667 49.3561 33.4618V48.5312H44.0936V34.3269H34.0089C33.5982 33.1742 32.4928 32.344 31.1926 32.344C29.5442 32.344 28.2041 33.6758 28.2041 35.3127C28.2041 36.9502 29.5448 38.2814 31.1926 38.2814C32.5283 38.2814 33.6625 37.4059 34.0432 36.2024H42.2049V50.4067H49.3542V59.8759H56.6039L56.6052 50.4067H69.6129V53.2664H61.2715V68.0629L41.7118 68.0623V62.7351H36.945V52.2837C38.1315 51.89 38.9898 50.7776 38.9898 49.4694C38.9898 47.832 37.6491 46.5007 36.0013 46.5007C34.3529 46.5007 33.0127 47.8326 33.0127 49.4694C33.0127 50.779 33.871 51.8907 35.0575 52.2837V64.6106H39.8243V68.0623H17.2335C14.9614 68.0623 13.1127 66.2258 13.1127 63.9688C13.1127 61.7125 14.9614 59.876 17.2335 59.876L17.2332 59.8759ZM56.18 16.3238C56.18 16.9265 55.6863 17.417 55.0796 17.417C54.4729 17.417 53.9792 16.9265 53.9792 16.3238C53.9792 15.7212 54.4729 15.2307 55.0796 15.2307C55.6863 15.2307 56.18 15.7218 56.18 16.3238ZM51.244 50.4061H54.7187V58.001H51.244V50.4061ZM50.3058 31.7428C49.6991 31.7428 49.2054 31.2523 49.2054 30.6496C49.2054 30.047 49.6991 29.5565 50.3058 29.5565C50.9125 29.5565 51.4062 30.047 51.4062 30.6496C51.4062 31.2517 50.9132 31.7428 50.3058 31.7428ZM32.2961 35.3123C32.2961 35.9149 31.8024 36.4054 31.1957 36.4054C30.589 36.4054 30.0953 35.9149 30.0953 35.3123C30.0953 34.7096 30.589 34.2191 31.1957 34.2191C31.8024 34.2191 32.2961 34.709 32.2961 35.3123ZM69.6146 55.1407V69.6991C68.5379 68.6878 67.0892 68.0628 65.4939 68.0628H63.1613V55.1407H69.6146ZM36.0016 50.5623C35.3949 50.5623 34.9012 50.0719 34.9012 49.4692C34.9012 48.8665 35.3949 48.3761 36.0016 48.3761C36.6083 48.3761 37.102 48.8665 37.102 49.4692C37.102 50.0719 36.6083 50.5623 36.0016 50.5623ZM65.4937 78.124H2.38852V21.9974H11.2256V63.9701C11.2256 67.2606 13.9208 69.938 17.2333 69.938H65.4926C67.7646 69.938 69.6134 71.7745 69.6134 74.0315C69.614 76.2884 67.7653 78.1249 65.4932 78.1249L65.4937 78.124Z" fill="url(#paint0_linear_469_16928)"/>
<defs>
<linearGradient id="paint0_linear_469_16928" x1="0.5" y1="0" x2="85.347" y2="24.7473" gradientUnits="userSpaceOnUse">
<stop stop-color="#74B9FF"/>
<stop offset="1" stop-color="#756FF6"/>
</linearGradient>
</defs>
</svg>
