<svg width="72" height="80" viewBox="0 0 72 80" fill="none" xmlns="http://www.w3.org/2000/svg">
<path d="M70.2555 66.2403H24.6729C24.0624 66.1918 23.4829 65.9518 23.0163 65.5533C22.5498 65.1554 22.2206 64.6197 22.0743 64.0231L21.4076 61.6435C21.7518 61.7529 22.1099 61.8115 22.4702 61.8171H55.8799C56.7163 61.8305 57.5348 61.5743 58.2149 61.086C58.8955 60.5982 59.4021 59.904 59.6606 59.106L68.9243 27.7299V27.7294C69.2635 26.6568 69.0739 25.4859 68.4139 24.5758C67.691 23.6449 66.5699 23.1147 65.3949 23.1477H56.1329C55.8398 24.0049 55.4867 24.8403 55.0763 25.6478H65.3949C65.7836 25.6182 66.1629 25.7756 66.4181 26.0719C66.6055 26.3504 66.6494 26.7026 66.5354 27.019L62.3465 41.2072H48.6535L50.1893 31.7831C49.3013 32.5226 48.3492 33.1805 47.3445 33.7498L46.1294 41.2072H31.3543L29.8201 34.4831C28.793 34.0082 27.8093 33.444 26.8801 32.7966L28.7987 41.2078L15.6946 41.2072L11.8148 27.019C11.742 26.7774 11.7976 26.5151 11.9627 26.3248C12.3331 25.8833 12.8825 25.6344 13.4569 25.6478H20.6614C20.2511 24.8403 19.8979 24.0049 19.6049 23.1477H13.4568C12.5237 23.1499 11.614 23.4407 10.8509 23.9803L9.7955 20.2145C9.75991 20.094 9.70597 19.979 9.63591 19.8747C9.57251 19.2385 9.03979 18.754 8.40307 18.7529H1.74562C1.05775 18.7529 0.5 19.3121 0.5 20.003C0.5 20.6933 1.05775 21.2531 1.74562 21.2531H7.49882L13.9249 44.1815L17.8415 58.5067V58.5061C17.9076 58.7221 17.9983 58.9291 18.1123 59.1239L19.6743 64.6974L19.6738 64.6968C19.9652 65.8196 20.6086 66.8186 21.5083 67.5468C22.4081 68.2751 23.5174 68.6942 24.6725 68.7416H25.7396C24.6286 70.0894 24.0713 71.811 24.1804 73.5561C24.2899 75.3017 25.0579 76.9397 26.328 78.1366C27.5981 79.3337 29.2752 80 31.0179 80C32.7606 80 34.4377 79.3337 35.7078 78.1366C36.9779 76.9396 37.7458 75.3016 37.8554 73.5561C37.9644 71.811 37.4072 70.0893 36.2962 68.7416H50.6514C49.5404 70.0894 48.9832 71.811 49.0922 73.5561C49.2018 75.3017 49.9697 76.9397 51.2398 78.1366C52.5099 79.3337 54.187 80 55.9297 80C57.6725 80 59.3496 79.3337 60.6197 78.1366C61.8898 76.9396 62.6577 75.3016 62.7673 73.5561C62.8763 71.811 62.3191 70.0893 61.208 68.7416H70.2544C70.9422 68.7416 71.5 68.1825 71.5 67.4916C71.5 66.8013 70.9422 66.2415 70.2544 66.2415L70.2555 66.2403ZM61.6085 43.7061L57.2722 58.3941C57.0586 58.9734 56.4953 59.3468 55.8803 59.3161H45.7035L48.247 43.7052L61.6085 43.7061ZM45.7229 43.7061L43.1794 59.317H35.4866L31.9254 43.7061H45.7229ZM32.9315 59.317H22.4711C21.672 59.1513 20.9496 58.7249 20.4163 58.1044L16.3814 43.7064H29.3703L32.9315 59.317ZM35.3787 73.1237C35.377 74.2834 34.9161 75.395 34.0975 76.2143C33.279 77.0336 32.1701 77.4928 31.0141 77.4912C29.8585 77.4901 28.7503 77.028 27.9339 76.2071C27.117 75.3867 26.6588 74.2739 26.6594 73.1137C26.6599 71.9541 27.1198 70.8413 27.9372 70.0214C28.7547 69.2016 29.8629 68.7407 31.019 68.7407C32.1756 68.7429 33.2844 69.2055 34.1019 70.0276C34.9193 70.849 35.3787 71.9624 35.3787 73.1237ZM60.2911 73.1237C60.2895 74.2834 59.8285 75.395 59.0099 76.2143C58.1914 77.0336 57.0825 77.4928 55.9265 77.4912C54.7709 77.4901 53.6627 77.028 52.8463 76.2071C52.0294 75.3867 51.5712 74.2739 51.5718 73.1137C51.5723 71.9541 52.0322 70.8413 52.8496 70.0214C53.6671 69.2016 54.7753 68.7407 55.9314 68.7407C57.088 68.7429 58.1968 69.2055 59.0143 70.0276C59.8317 70.849 60.2911 71.9624 60.2911 73.1237Z" fill="url(#paint0_linear_469_16920)"/>
<path d="M54.6855 16.876C54.6855 12.3997 52.9138 8.10761 49.7602 4.94286C46.6066 1.7781 42.3293 0 37.8696 0C33.4098 0 29.1324 1.77796 25.979 4.94286C22.8255 8.10776 21.0537 12.3997 21.0537 16.876C21.0537 21.3517 22.8253 25.6438 25.979 28.8085C29.1324 31.9739 33.4098 33.752 37.8696 33.752C42.3276 33.7464 46.6023 31.9673 49.7547 28.803C52.9071 25.6392 54.6805 21.35 54.6855 16.876ZM23.545 16.876C23.545 13.0632 25.0542 9.40626 27.7406 6.71082C30.427 4.0148 34.0705 2.50015 37.8696 2.50015C41.6687 2.50015 45.3121 4.0148 47.9985 6.71082C50.685 9.40626 52.1942 13.0633 52.1942 16.876C52.1942 20.6886 50.685 24.3451 47.9985 27.0411C45.3121 29.7372 41.6687 31.2518 37.8696 31.2518C34.0715 31.2474 30.4309 29.7316 27.745 27.0361C25.0598 24.3413 23.5494 20.6871 23.545 16.876Z" fill="url(#paint1_linear_469_16920)"/>
<path d="M46.2243 10.9926C45.9908 10.7582 45.6738 10.6265 45.3435 10.6265C45.0132 10.6265 44.6962 10.7582 44.4627 10.9926L35.3786 20.1091L31.277 15.9928C30.7904 15.5062 30.003 15.5068 29.5171 15.9945C29.0316 16.4817 29.0305 17.2719 29.5154 17.7602L34.4979 22.7605C34.7314 22.9954 35.0484 23.1271 35.3787 23.1271C35.709 23.1271 36.026 22.9954 36.2595 22.7605L46.2245 12.7599C46.4581 12.5255 46.5893 12.208 46.5893 11.8765C46.5893 11.5444 46.4581 11.2269 46.2245 10.9925L46.2243 10.9926Z" fill="url(#paint2_linear_469_16920)"/>
<defs>
<linearGradient id="paint0_linear_469_16920" x1="0.5" y1="18.7529" x2="80.8962" y2="49.3818" gradientUnits="userSpaceOnUse">
<stop stop-color="#74B9FF"/>
<stop offset="1" stop-color="#756FF6"/>
</linearGradient>
<linearGradient id="paint1_linear_469_16920" x1="21.0537" y1="0" x2="60.44" y2="12.8979" gradientUnits="userSpaceOnUse">
<stop stop-color="#74B9FF"/>
<stop offset="1" stop-color="#756FF6"/>
</linearGradient>
<linearGradient id="paint2_linear_469_16920" x1="29.1523" y1="10.6265" x2="47.8363" y2="19.1915" gradientUnits="userSpaceOnUse">
<stop stop-color="#74B9FF"/>
<stop offset="1" stop-color="#756FF6"/>
</linearGradient>
</defs>
</svg>
