<svg width="202" height="210" viewBox="0 0 202 210" fill="none" xmlns="http://www.w3.org/2000/svg">
<path d="M158.626 10.3085C158.031 8.8963 157.236 7.57679 156.267 6.39025C155.401 5.56206 154.371 4.92549 153.243 4.52191C152.1 4.09941 150.928 3.7656 149.734 3.52344C148.764 3.34685 147.764 3.45503 146.854 3.83491C145.945 4.21479 145.164 4.85011 144.608 5.6641C144.378 6.18687 144.349 6.77592 144.527 7.31871C144.704 7.8615 145.074 8.31998 145.568 8.60655C146.619 9.36296 147.836 9.86976 148.933 10.5127C149.802 11.0119 150.672 11.5112 151.511 12.0634C153.023 13.0543 153.091 14.7184 151.745 15.9438C150.088 17.3208 148.01 18.0895 145.855 18.1222C141.685 18.439 137.491 18.084 133.433 17.0708C128.828 15.8908 124.208 14.8016 119.649 13.44C116.368 12.487 113.154 11.2994 109.948 10.0967C106.493 8.81078 103 7.60052 99.3026 7.47949C94.8417 7.32821 86.449 10.0589 86.449 10.0589L71.1002 18.7198C59.3656 28.2355 61.5659 26.6016 52.0088 42.5166L44.4479 54.8159C45.96 57.6827 54.4208 67.2287 54.4208 67.2287C54.4208 67.2287 44.5915 64.5736 42.5576 65.7158V80.413L55.4113 98.8241C55.4113 98.8241 59.0329 104.626 60.7795 107.568C60.8229 107.733 60.8278 107.905 60.7937 108.072C60.7596 108.238 60.6874 108.395 60.5829 108.529C60.1342 109.073 59.808 109.707 59.6266 110.388C59.4452 111.07 59.4129 111.782 59.532 112.477C59.3587 113.7 59.3106 114.937 59.3883 116.169C59.3883 116.812 59.6454 117.613 60.3712 117.681C61.083 117.788 61.7368 118.135 62.2237 118.665C62.6244 118.975 63.0554 119.255 63.5242 119.58C63.6376 119.285 63.7359 119.081 63.8039 118.869C63.9854 118.264 64.0459 117.606 65.0137 117.727C65.6563 117.803 66.3217 117.492 66.8888 118.143C67.3889 118.618 67.9361 119.042 68.522 119.406C69.21 118.877 68.6959 117.734 69.83 117.591C71.2666 117.417 72.4461 117.591 72.5444 119.52L74.4649 117.833C74.6161 117.704 74.7824 117.5 74.9563 117.492C75.5994 117.392 76.2554 117.41 76.8919 117.545C77.1944 117.644 77.3002 118.302 77.4968 118.725C77.5724 118.884 77.648 119.028 77.7766 119.278C78.7746 118.423 79.7197 117.644 80.6346 116.819C80.8301 116.61 80.9567 116.346 80.9975 116.063C81.4089 113.525 81.0149 110.922 79.871 108.62C79.7349 108.332 79.4702 107.962 79.198 107.909C78.9222 107.849 78.6636 107.728 78.4419 107.553H78.0261C76.3778 107.001 73.4366 105.745 72.0302 103.582C70.9384 101.722 70.1353 99.7073 69.6485 97.6062C69.6485 97.6062 67.7734 91.7138 69.2856 89.732L76.0905 96.0026L83.9539 98.7711L84.3017 98.8997L87.7722 100.98L92.3617 112.16L108.716 115.942C108.716 115.942 114.946 122.923 117.91 127.19V128.43C119.072 131.355 120.596 134.122 122.447 136.667C123.157 137.613 123.619 136.667 123.83 137.84C123.906 138.286 123.997 138.725 124.11 139.353C125.124 138.751 126.081 138.057 126.968 137.28C127.167 137.041 127.421 136.854 127.708 136.734C127.995 136.615 128.307 136.566 128.616 136.592C128.858 136.592 128.972 136.63 129.01 136.894C129.123 137.651 129.259 138.347 129.403 139.164C130.083 138.763 130.756 138.407 131.346 138.006C131.828 137.606 132.285 137.176 132.715 136.72C132.867 136.596 133.026 136.48 133.191 136.372C133.274 136.539 133.357 136.705 133.425 136.872C133.437 136.934 133.437 136.998 133.425 137.061C133.539 137.704 133.652 138.354 133.788 139.103L136.918 137.106C137.024 137.689 137.138 138.301 137.259 138.975L139.209 137.832C139.67 137.575 140.072 137.224 140.39 136.804C140.709 136.384 140.938 135.902 141.062 135.389C141.289 134.511 141.289 133.59 141.062 132.711C141.122 132.575 139.958 129.814 139.958 129.746C139.86 128.407 139.633 128.075 138.37 127.628C138.255 127.58 138.136 127.542 138.015 127.515L136.132 127.106C134.665 125.979 133.501 125.034 133.501 125.034L131.414 123.929L125.917 117.681C124.736 116.234 123.64 114.719 122.636 113.143C122.303 113.775 121.827 114.319 121.245 114.731C120.503 115.22 119.678 115.566 118.81 115.753C118.406 115.851 117.993 115.912 117.577 115.934C116.504 115.994 115.43 115.83 114.423 115.454C113.415 115.078 112.497 114.497 111.725 113.748C111.455 113.491 111.253 113.172 111.136 112.818C111.045 112.576 110.962 112.334 110.878 112.061C110.757 111.691 110.175 110.314 110.017 109.958C109.397 108.692 108.869 107.382 108.436 106.04C108.101 104.963 107.93 103.841 107.93 102.712C107.847 102.833 107.763 102.947 107.673 103.06C107.439 103.376 107.102 103.598 106.72 103.688C106.307 103.767 105.879 103.709 105.503 103.521L96.3009 100.98C96.3009 100.98 99.0456 95.4807 98.9095 94.2175L101.624 100.344L106.72 102.508C107.075 102.362 107.399 102.149 107.673 101.88C107.763 101.767 107.847 101.653 107.93 101.532C107.93 102.576 112.542 113.521 112.542 113.521L117.577 114.724L118.81 114.542C119.666 114.268 120.491 113.908 121.275 113.468C121.682 113.188 122.035 112.837 122.318 112.432C122.581 112.05 122.809 111.645 122.999 111.222L123.407 110.344L123.997 109.073L122.87 109.24C122.87 108.952 122.87 108.657 122.825 108.347C122.797 108.077 122.703 107.817 122.553 107.591L121.978 106.441C122.023 106.35 122.069 106.26 122.106 106.169C122.193 106.168 122.28 106.155 122.364 106.131C122.587 106.08 122.797 105.985 122.984 105.851H123.089C123.065 105.983 123.052 106.118 123.052 106.252C123.052 106.252 123.052 106.305 123.052 106.328L122.999 107.008L122.9 108.158L124.67 107.674H124.715L124.881 107.636C125.118 107.586 125.342 107.488 125.539 107.349C126.668 106.575 127.486 105.425 127.845 104.104C127.906 103.884 127.951 103.658 128.004 103.438L128.065 103.166L128.163 102.712L128.261 102.614C128.901 101.842 129.4 100.964 129.735 100.019C129.764 99.8732 129.802 99.7292 129.849 99.5881C132.692 94.2251 125.501 87.6972 125.501 87.6972L125.985 86.8273C126.016 86.7837 126.043 86.7382 126.068 86.6912C126.214 86.4826 126.326 86.253 126.401 86.0104C126.599 85.3915 126.646 84.7341 126.539 84.0932C126.431 83.4523 126.171 82.8466 125.781 82.3267C125.154 81.5094 124.433 80.7682 123.634 80.118L123.331 79.8456C123.082 79.6263 122.825 79.4145 122.575 79.2103V79.0741C122.575 79.0363 122.575 79.006 122.575 78.9758C122.614 78.7841 122.629 78.5886 122.621 78.3933C122.608 78.1426 122.68 77.8948 122.825 77.6899L123.868 70.572L117.464 73.0152C115.37 70.4737 108.648 68.7037 108.648 68.7037L97.987 53.0156L97.7073 44.6951L106.637 43.4092L97.5636 37.842L113.797 44.0219L114.697 44.4001L122.069 48.1821L126.28 47.8644L131.376 47.6829C131.376 47.6829 135.157 48.7948 135.913 50.9431C134.597 51.639 133.335 52.3122 132.064 52.9702C131.86 53.0811 131.67 53.2157 131.497 53.3711C132.057 54.1276 132.125 58.7266 132.677 60.315C132.503 60.9591 132.503 61.6376 132.677 62.2817C132.742 62.5581 132.874 62.8143 133.061 63.0279C133.248 63.2415 133.485 63.406 133.75 63.5071C133.796 63.2575 133.841 63.0381 133.886 62.8188C133.942 62.4646 134.079 62.1281 134.287 61.8355C134.494 61.543 134.766 61.3022 135.081 61.132C135.119 61.1136 135.152 61.0879 135.179 61.0563C135.89 61.1017 136.692 61.1395 137.599 61.1698C137.557 61.5494 137.557 61.9324 137.599 62.312C137.611 62.6858 137.725 63.0493 137.929 63.3628C138.133 63.6762 138.419 63.9276 138.756 64.0895C138.854 63.6962 138.937 63.3331 139.035 63.0306C139.109 62.7429 139.242 62.4738 139.425 62.2406C139.609 62.0074 139.839 61.8153 140.102 61.6766C140.173 61.6376 140.235 61.5836 140.283 61.5183C140.331 61.453 140.365 61.3779 140.381 61.2984C140.381 61.2984 140.381 61.2984 140.381 61.2454H142.075C142.049 61.6592 142.097 62.0744 142.219 62.4708C142.284 62.7472 142.416 63.0034 142.603 63.217C142.79 63.4306 143.027 63.5951 143.292 63.6962C143.345 63.4693 143.383 63.2499 143.436 63.0306C143.49 62.6679 143.629 62.3233 143.842 62.0249C144.055 61.7264 144.336 61.4826 144.661 61.3135L144.714 61.2757H147.05C147.029 61.7214 147.125 62.1649 147.33 62.5616C147.554 62.9244 147.807 63.2684 148.086 63.5903L148.245 63.492C148.335 63.1365 148.411 62.7809 148.524 62.4254C148.688 61.8856 149.058 61.4319 149.553 61.1622C149.633 61.1107 149.702 61.0432 149.756 60.9638C149.809 60.8844 149.846 60.7949 149.863 60.7008C149.9 60.3072 149.867 59.9102 149.764 59.5284L149.901 59.3166C150.513 58.3257 151.08 57.3121 151.715 56.3363C151.623 55.6105 151.341 54.9218 150.899 54.3394C150.006 53.1896 148.933 52.176 148.025 51.0338C147.574 50.4477 147.216 49.7943 146.967 49.0974C146.506 47.8493 145.765 45.3153 145.765 45.3153L138.839 37.5848C138.839 37.5848 136.087 36.3216 134.711 38.1218C133.902 37.4335 120.549 27.6455 119.18 27.2597C118.39 27.068 117.665 26.6669 117.082 26.0987C116.5 25.5304 116.08 24.8159 115.869 24.0298C115.4 22.6078 115.022 21.163 114.508 19.393C115.974 19.5455 117.43 19.7804 118.87 20.0965C123.331 21.337 127.747 22.7364 132.215 23.9844C137.448 25.4368 142.801 26.2537 148.162 24.9451C151.458 24.1282 154.724 22.7893 156.872 20.0662C159.193 17.3053 160.32 13.9317 158.626 10.3085ZM64.2046 116.774C63.9825 117.142 63.7296 117.492 63.4485 117.818L63.2898 117.727C63.1839 117.379 63.1007 117.016 62.9798 116.675C62.8924 116.409 62.7533 116.162 62.5703 115.949C62.3874 115.736 62.1642 115.561 61.9137 115.435C61.8316 115.387 61.7604 115.323 61.7044 115.246C61.6485 115.169 61.609 115.081 61.5886 114.989C61.501 114.428 61.5609 113.854 61.7624 113.323C61.9639 112.793 62.3001 112.324 62.7378 111.963C63.6065 112.686 64.184 113.699 64.3634 114.815C64.539 115.466 64.4829 116.159 64.2046 116.774ZM77.27 111.479C77.9116 112.019 78.3957 112.722 78.6711 113.514C78.9466 114.306 79.0033 115.158 78.8351 115.98C78.7766 116.258 78.6519 116.518 78.4716 116.738C78.2913 116.958 78.0607 117.131 77.7993 117.243C77.7388 116.993 77.6934 116.774 77.6405 116.554C77.5724 116.204 77.4244 115.875 77.208 115.591C76.9916 115.308 76.7126 115.078 76.3929 114.921C76.3333 114.891 76.2804 114.85 76.2375 114.799C76.1945 114.748 76.1625 114.689 76.1434 114.626C76.0242 114.05 76.0664 113.453 76.2652 112.901C76.464 112.348 76.8118 111.861 77.27 111.494V111.479ZM72.2798 112.145C72.851 112.637 73.2975 113.257 73.5827 113.956C73.8679 114.654 73.9837 115.41 73.9205 116.161C73.9209 116.534 73.8188 116.9 73.6255 117.219C73.4321 117.537 73.1549 117.797 72.8241 117.969L72.5141 116.917C72.4293 116.633 72.2868 116.37 72.0956 116.143C71.9043 115.917 71.6684 115.732 71.4027 115.601C71.3297 115.564 71.2656 115.512 71.2147 115.448C71.1638 115.384 71.1274 115.31 71.1078 115.231C71.0207 114.661 71.0829 114.079 71.2883 113.54C71.4938 113.002 71.8354 112.526 72.2798 112.16V112.145ZM69.3083 116.509C69.2516 116.788 69.1276 117.049 68.947 117.269C68.7665 117.489 68.5349 117.662 68.2724 117.772C68.2195 117.545 68.1742 117.326 68.1137 117.107C68.0473 116.747 67.897 116.408 67.6749 116.118C67.4529 115.827 67.1654 115.593 66.8359 115.435C66.7392 115.393 66.6631 115.314 66.6242 115.216C66.489 114.633 66.5225 114.024 66.7207 113.461C66.9189 112.897 67.2736 112.401 67.7432 112.031C68.3842 112.566 68.8682 113.265 69.1438 114.054C69.4194 114.842 69.4763 115.691 69.3083 116.509ZM138 130.389C138.634 130.942 139.108 131.654 139.374 132.452C139.64 133.25 139.688 134.105 139.512 134.928C139.454 135.204 139.331 135.463 139.153 135.682C138.976 135.902 138.749 136.076 138.491 136.191C138.438 135.941 138.393 135.722 138.332 135.503C138.27 135.153 138.127 134.822 137.916 134.536C137.705 134.25 137.431 134.016 137.115 133.854C137.056 133.824 137.004 133.783 136.963 133.732C136.921 133.681 136.89 133.622 136.873 133.559C136.75 132.978 136.79 132.374 136.989 131.815C137.188 131.255 137.538 130.762 138 130.389ZM134.544 130.442C135.107 130.94 135.546 131.562 135.826 132.259C136.105 132.957 136.218 133.71 136.155 134.459C136.158 134.83 136.06 135.196 135.87 135.516C135.681 135.836 135.408 136.098 135.081 136.274C134.968 135.888 134.877 135.556 134.771 135.223C134.691 134.941 134.554 134.678 134.368 134.452C134.182 134.226 133.951 134.04 133.69 133.907C133.618 133.868 133.555 133.815 133.504 133.752C133.453 133.688 133.416 133.615 133.395 133.536C133.308 132.965 133.368 132.381 133.569 131.84C133.77 131.299 134.106 130.818 134.544 130.442ZM130.129 130.593C130.755 131.139 131.225 131.841 131.491 132.628C131.757 133.414 131.808 134.258 131.641 135.071C131.587 135.349 131.466 135.61 131.288 135.83C131.11 136.05 130.881 136.224 130.62 136.335C130.567 136.108 130.522 135.888 130.461 135.669C130.402 135.311 130.258 134.972 130.041 134.681C129.824 134.39 129.54 134.156 129.214 133.997C129.118 133.953 129.043 133.875 129.002 133.778C128.875 133.195 128.913 132.588 129.112 132.025C129.311 131.463 129.663 130.967 130.129 130.593ZM124.791 130.684C125.647 131.413 126.213 132.425 126.386 133.536C126.549 134.184 126.493 134.867 126.227 135.48C126.003 135.85 125.75 136.201 125.471 136.531L125.32 136.441C125.214 136.085 125.131 135.73 125.01 135.382C124.926 135.116 124.791 134.87 124.612 134.657C124.433 134.444 124.214 134.269 123.966 134.141C123.885 134.093 123.814 134.029 123.76 133.952C123.705 133.875 123.667 133.787 123.649 133.695C123.567 133.138 123.628 132.569 123.826 132.043C124.025 131.516 124.354 131.048 124.783 130.684H124.791ZM126.59 103.771C126.303 104.804 125.66 105.701 124.776 106.305C124.63 106.372 124.474 106.416 124.314 106.434C124.319 106.292 124.332 106.15 124.352 106.01C124.45 105.647 124.586 105.254 124.662 104.928C124.709 104.638 124.736 104.345 124.745 104.051H124.655L124.458 104.263C124.329 104.399 124.178 104.429 124.05 104.263C123.921 104.096 121.335 104.679 121.237 104.906C121.078 105.291 120.919 105.662 120.73 106.048C120.417 106.649 119.944 107.152 119.362 107.5C119.12 107.644 118.984 107.561 118.984 107.281C118.974 107.075 118.994 106.868 119.044 106.668C119.177 106.137 119.177 105.581 119.044 105.049C118.999 104.86 118.976 104.671 118.946 104.49C119.838 104.611 126.273 103.249 126.719 102.818L126.787 102.871C126.726 103.173 126.666 103.476 126.59 103.771ZM119.029 94.2326L123.384 97.75L124.322 98.0147C124.839 98.1252 125.373 98.1313 125.892 98.0325C126.411 97.9338 126.906 97.7323 127.346 97.4398L129.615 94.6789L127.989 97.871L126.809 99.3838L126.651 99.4822C126.348 99.6706 126.006 99.7852 125.652 99.8167C125.297 99.8483 124.94 99.7958 124.609 99.6637L122.9 98.9905L118.681 94.452L117.169 92.039L119.029 94.2326ZM115.899 110.632L116.602 109.921C116.829 109.694 117.048 109.459 117.298 109.24C117.547 109.021 117.691 109.028 117.782 109.353C117.872 109.679 117.918 110.011 117.986 110.344L118.099 110.783C118.175 110.745 118.205 110.745 118.213 110.73C119.134 110.526 120.074 110.42 121.018 110.412C121.002 110.223 121.025 110.033 121.086 109.853C121.246 109.612 121.44 109.396 121.66 109.21C121.774 109.137 121.896 109.078 122.023 109.036C122.076 109.142 122.175 109.24 122.182 109.346C122.182 109.754 122.235 110.17 122.243 110.586C122.25 111.002 121.94 111.282 121.486 111.07C121.033 110.859 116.95 111.555 116.632 111.486C116.381 111.44 116.141 111.342 115.929 111.199C115.88 111.171 115.839 111.13 115.81 111.081C115.78 111.032 115.764 110.977 115.763 110.92C115.761 110.863 115.774 110.806 115.801 110.756C115.827 110.706 115.866 110.663 115.914 110.632H115.899ZM104.603 87.077C106.354 88.7134 108.577 89.7562 110.954 90.0572C111.551 90.148 112.927 90.2917 112.875 91.0633C112.255 90.564 110.757 91.2448 110.258 91.4566C109.867 91.6529 109.453 91.8003 109.026 91.8953C108.479 91.9915 107.917 91.9701 107.379 91.8325C106.841 91.6949 106.338 91.4443 105.904 91.0973C105.47 90.7503 105.114 90.3149 104.861 89.8199C104.608 89.325 104.464 88.7819 104.437 88.2267C104.437 87.8334 104.437 87.4325 104.437 87.0013C104.565 87.0543 104.603 87.0543 104.618 87.077H104.603ZM102.1 82.1451L96.1875 80.8744L94.2746 83.2193H92.6792L91.4014 76.4115L102.1 82.1451Z" fill="#1A1A18"/>
<path d="M3.28568 200.282C3.16365 200.893 3.17869 201.523 3.3297 202.127C3.48072 202.731 3.76395 203.294 4.15894 203.775C4.55392 204.257 5.05081 204.644 5.61372 204.91C6.17663 205.176 6.79151 205.313 7.41396 205.312H25.9761L27.1178 199.155H12.321C12.1797 199.156 12.0398 199.126 11.9115 199.067C11.7832 199.008 11.6697 198.921 11.5793 198.812C11.4888 198.703 11.4236 198.576 11.3884 198.439C11.3533 198.302 11.349 198.159 11.3759 198.02L11.9505 195.078H25.4015L26.4751 189.707H12.9486L13.5913 186.841L9.51591 185.766H29.6281L31.0268 179.753H7.3686L3.28568 200.282Z" fill="#1A1A18"/>
<path d="M125.153 179.715H91.5147V179.753H71.1001L67.0172 200.282C66.8959 200.889 66.9099 201.515 67.0584 202.116C67.2068 202.717 67.486 203.278 67.876 203.758C68.266 204.239 68.7571 204.627 69.3144 204.896C69.8717 205.164 70.4815 205.307 71.1001 205.312H89.6622L90.8039 199.155H76.0147C75.8734 199.157 75.7335 199.127 75.6052 199.067C75.4769 199.008 75.3634 198.921 75.2729 198.812C75.1825 198.704 75.1173 198.576 75.0821 198.439C75.0469 198.302 75.0427 198.159 75.0696 198.021L75.6442 195.078H89.0952L90.1688 189.708H76.6423L77.2849 186.841L73.2096 185.767H93.3217V185.699H120.269C120.389 185.694 120.508 185.718 120.617 185.768C120.726 185.818 120.821 185.894 120.895 185.989C120.969 186.083 121.019 186.194 121.042 186.312C121.065 186.43 121.059 186.552 121.025 186.667L120.103 191.334C120.066 191.52 119.966 191.688 119.82 191.809C119.674 191.931 119.491 191.998 119.301 191.999H98.8866C98.5965 192 98.3155 192.101 98.0919 192.286C97.8684 192.471 97.7162 192.728 97.6617 193.013L95.28 205.244H102.841L103.99 199.231L99.62 197.937L113.578 197.869L116.965 205.471H124.601L121.169 197.794H123.354C124.188 197.793 124.995 197.502 125.638 196.971C126.281 196.439 126.719 195.701 126.877 194.881L128.972 184.473C129.087 183.903 129.076 183.314 128.938 182.748C128.801 182.182 128.541 181.654 128.176 181.2C127.812 180.746 127.352 180.377 126.83 180.121C126.308 179.864 125.735 179.726 125.153 179.715Z" fill="#1A1A18"/>
<path d="M54.0353 199.662H53.6723L49.8087 179.753H36.5695L31.7002 205.312H39.2914L42.8677 186.198L39.0041 185.055H43.3668L47.2304 205.312H60.2579L65.4145 179.753H57.6797L54.0353 199.662Z" fill="#1A1A18"/>
<path d="M135.543 182.665L131.891 200.819C131.778 201.371 131.79 201.941 131.926 202.488C132.062 203.035 132.318 203.545 132.676 203.98C133.034 204.415 133.485 204.764 133.995 205.002C134.506 205.241 135.063 205.362 135.626 205.358H152.487C154.297 205.357 156.049 204.715 157.433 203.547C158.817 202.379 159.743 200.759 160.048 198.973L161.605 189.896H147.996L147.504 192.725C147.459 192.985 147.471 193.25 147.539 193.504C147.608 193.758 147.731 193.994 147.901 194.195C148.07 194.396 148.281 194.558 148.52 194.669C148.758 194.779 149.018 194.836 149.281 194.836H153.22L152.736 198.232C152.693 198.542 152.539 198.826 152.303 199.032C152.066 199.237 151.764 199.351 151.451 199.352H140.775C140.653 199.352 140.533 199.325 140.423 199.273C140.313 199.221 140.216 199.145 140.138 199.051C140.061 198.957 140.005 198.847 139.976 198.729C139.946 198.611 139.943 198.488 139.966 198.368L142.234 186.674L138.658 185.6H162.097L163.095 179.692H139.149C138.296 179.69 137.469 179.985 136.81 180.528C136.151 181.071 135.703 181.827 135.543 182.665Z" fill="#1A1A18"/>
<path d="M178.648 189.133L173.922 179.715H165.976L173.99 195.078L178.217 196.296L173.635 196.22L172.062 205.388H180.576L182.156 194.934L194.533 179.715H185.732L178.648 189.133Z" fill="#1A1A18"/>
<path d="M74.3818 157.477L71.1835 156.531H74.7977L78.0035 173.316H88.793L93.065 152.137H86.6608L83.6364 168.634H83.3416L80.1357 152.137H69.1648L65.1348 173.316H71.4179L74.3818 157.477Z" fill="#1A1A18"/>
<path d="M195.485 152.144H167.434H150.399L146.997 169.254C146.895 169.763 146.907 170.289 147.033 170.793C147.159 171.296 147.395 171.766 147.724 172.168C148.053 172.569 148.467 172.893 148.936 173.115C149.405 173.337 149.918 173.452 150.437 173.452H165.907L166.859 168.324H154.528C154.412 168.319 154.299 168.29 154.196 168.238C154.093 168.185 154.002 168.112 153.931 168.021C153.859 167.93 153.807 167.825 153.78 167.713C153.752 167.601 153.75 167.484 153.771 167.371L154.248 164.92H165.461L166.353 160.442H155.027L155.563 158.059L152.161 157.159H168.931V157.099H191.395C191.496 157.095 191.597 157.114 191.69 157.156C191.782 157.197 191.864 157.26 191.928 157.338C191.993 157.416 192.038 157.509 192.061 157.608C192.084 157.706 192.084 157.809 192.06 157.908L191.304 161.803C191.273 161.959 191.189 162.099 191.066 162.2C190.943 162.3 190.79 162.355 190.631 162.356H173.506C173.295 162.359 173.092 162.436 172.932 162.575C172.773 162.713 172.668 162.903 172.636 163.112L170.625 173.43H176.953L177.906 168.422L174.269 167.348L185.898 167.287L188.801 173.43H195.168L192.227 167.189H194.041C194.738 167.185 195.412 166.94 195.949 166.497C196.486 166.053 196.854 165.437 196.99 164.753L198.736 156.085C198.829 155.606 198.814 155.112 198.694 154.639C198.573 154.165 198.35 153.725 198.039 153.348C197.728 152.972 197.338 152.668 196.897 152.46C196.455 152.252 195.973 152.144 195.485 152.144Z" fill="#1A1A18"/>
<path d="M125.841 166.289L122.326 165.268H136.82L135.232 173.316H141.545L145.712 152.137H139.398L137.803 160.261H127.187L128.783 152.137H122.537L118.167 173.316H124.76L125.841 166.289Z" fill="#1A1A18"/>
<path d="M99.6582 173.316H106.652L109.707 158.324L106.493 156.963H116.95L117.88 152.137H96.5053L95.4316 156.963H103.015L99.6582 173.316Z" fill="#1A1A18"/>
<path d="M45.7933 167.189H55.2823L54.0423 173.339H60.2877L63.6901 156.289C63.791 155.789 63.7794 155.272 63.6563 154.777C63.5331 154.282 63.3013 153.82 62.9778 153.426C62.6543 153.031 62.2472 152.713 61.7858 152.496C61.3245 152.278 60.8205 152.165 60.3104 152.167H45.1884C44.4014 152.166 43.6389 152.44 43.0318 152.941C42.4247 153.442 42.0109 154.139 41.8616 154.912L38.4062 173.316H44.576L45.7933 167.189ZM56.8777 156.985C56.9342 156.983 56.9903 156.995 57.0417 157.019C57.093 157.042 57.1384 157.077 57.1741 157.121C57.2099 157.165 57.2351 157.216 57.248 157.271C57.2608 157.326 57.2609 157.384 57.2482 157.439L56.2426 162.439H46.7233L47.5928 158.059L44.3643 156.985H56.8777Z" fill="#1A1A18"/>
<path d="M35.3816 164.224L37.0223 155.646C37.1037 155.219 37.0896 154.779 36.9813 154.358C36.8729 153.937 36.6728 153.545 36.3954 153.211C36.1179 152.876 35.77 152.607 35.3765 152.423C34.9829 152.238 34.5535 152.143 34.1189 152.144H12.7289L8.42676 173.324H15.0955L16.2448 167.514H31.3667C32.315 167.523 33.2361 167.198 33.9697 166.596C34.7033 165.995 35.2029 165.156 35.3816 164.224ZM29.6882 161.448C29.6418 161.719 29.5009 161.965 29.2905 162.142C29.0802 162.32 28.8139 162.417 28.5389 162.416H17.3563L18.1123 158.18L14.8838 156.962H29.5143C29.6419 156.962 29.7679 156.991 29.8834 157.045C29.9989 157.099 30.101 157.178 30.1826 157.276C30.2641 157.375 30.323 157.489 30.3552 157.613C30.3874 157.737 30.392 157.866 30.3687 157.991L29.6882 161.448Z" fill="#1A1A18"/>
</svg>
